<svg xmlns="http://www.w3.org/2000/svg" xmlns:xlink="http://www.w3.org/1999/xlink" width="488pt" height="488pt" viewBox="0 0 488 488"><defs><linearGradient id="a"><stop offset="0" style="stop-color:#ffd862;stop-opacity:1"/><stop offset="1" style="stop-color:#fff;stop-opacity:1"/></linearGradient><linearGradient id="b"><stop offset="0" style="stop-color:#9cbd49;stop-opacity:1"/><stop offset="1" style="stop-color:#bcd385;stop-opacity:1"/></linearGradient><linearGradient id="c"><stop offset="0" style="stop-color:#efc4d0;stop-opacity:1"/><stop offset="1" style="stop-color:#fff3ff;stop-opacity:1"/><stop offset="1" style="stop-color:#efc4d0;stop-opacity:0"/></linearGradient><linearGradient xlink:href="#a" id="d" x1="488" x2="0" y1="0" y2="488" gradientUnits="userSpaceOnUse"/><linearGradient xlink:href="#b" id="e" x1="306.8588" x2="365.8084" y1="484.7898" y2="439.6332" gradientTransform="rotate(5.0828 357.6222 277.642) scale(.8)" gradientUnits="userSpaceOnUse"/><linearGradient xlink:href="#b" id="f" x1="413.8321" x2="454.3806" y1="455.8694" y2="390.2877" gradientTransform="rotate(-.7822 -1163.329 1454.4096) scale(.8)" gradientUnits="userSpaceOnUse"/><linearGradient xlink:href="#c" id="g" x1="1038.8982" x2="748.6484" y1="351.7149" y2="393.1426" gradientTransform="rotate(79.9916 555.2417 -76.8657) scale(.8)" gradientUnits="userSpaceOnUse"/></defs><path d="M0 0h488v488H0z" style="opacity:1;fill:url(#d);fill-opacity:1;fill-rule:nonzero;stroke:none;stroke-width:10;stroke-linecap:butt;stroke-linejoin:miter;stroke-miterlimit:4;stroke-dasharray:none;stroke-dashoffset:0;stroke-opacity:1"/><g style="display:inline"><path d="M360.9496 488H0V0h230.4297c78.6857 61.9059 111.4725 205.8727 118.562 266.4358 7.657 34.2058 22.939 193.595 11.9579 221.5642Z" style="fill:#ebbf95"/><path d="M243.9904 13.92c4.3844 4.3844 19.664 19.645 19.664 24.8146C245.7788 43.5243 18.6976 87.513 0 90.95v-27.6c22.1321-3.9732 224.6312-45.4031 243.9904-49.43Z" style="fill:#fdefd3"/><path d="M202.01 330.08c5.7977 3.5885 11.8275 30.1194 14.9679 52.0178.219 5.0468-.2866 85.838-13.1979 105.9022h-35.93c17.0507-35.2573 36.36-103.9866 34.16-157.92zM0 232.68C27.4515 280.2274 81.9539 441.7072 73.83 488 66.1292 459.2604 7.688 325.3478 0 308.72Z" style="fill:#e2a776"/><path d="M0 308.72C13.0628 321.7828 84.404 481.895 73.83 488H0Z" style="fill:#f9e9dc"/><path d="m24.448 425.265 1.7283 8.7722L0 441.38v-8.96Z" style="fill:#996959"/><path d="M352.3826 408.6554c5.418 9.3842 8.5674 25.0863 8.5674 79.3446h-27.38c7.0585-14.9686 20.855-56.3996 18.8126-79.3446z" style="fill:#e2a776"/></g><g style="display:inline"><path d="M193.686 149.0183C214.9684 228.4453 234.695 294.59 203.78 488M230.4297 0c71.305 81.1759 139.6132 188.7524 130.5199 488M0 308.72C4.429 311.2771 68.934 449.9667 73.83 488" style="display:inline;fill:none;fill-rule:evenodd;stroke:#996959;stroke-width:10.39999962;stroke-linecap:square;stroke-linejoin:miter;stroke-miterlimit:4;stroke-dasharray:none;stroke-opacity:1"/></g><g style="display:inline"><path d="M284.1278 440.0108c-12.0742-6.7793-24.0298-18.877-33.7279-34.1294-16.6302-26.1547-27.3313-62.6222-28.9615-98.6962-.1942-4.2965-.1206-6.9438.3971-14.2773.3495-4.9515.7136-10.7332.8092-12.8482l.1736-3.8454 1.5357 3.2602c5.7569 12.2218 12.5052 23.4134 19.5095 32.3553 5.8058 7.4118 17.5411 15.4732 29.4226 20.2114 4.7826 1.9072 4.5797 1.8652 5.1013 1.0538.4377-.6809.4946-.5638 1.9106 3.9297 5.0193 15.9277 8.4799 31.8911 10.222 47.1528 2.5118 22.0029 1.4683 40.7695-3.0124 54.181-.5447 1.6305-1.0108 2.9596-1.0357 2.9536-.025-.006-1.0797-.5914-2.344-1.3013z" style="display:inline;opacity:1;fill:url(#e);fill-opacity:1;stroke:none;stroke-width:8;stroke-linecap:square;stroke-linejoin:miter;stroke-miterlimit:4;stroke-dasharray:none;stroke-dashoffset:0;stroke-opacity:1"/><path d="M279.371 324.1284c17.6873 47.4501 20.5273 98.4695 8.6712 121.5983-43.9832-19.7894-66.7197-84.8987-69.1593-175.857" style="display:inline;fill:none;fill-rule:evenodd;stroke:#996959;stroke-width:8;stroke-linecap:butt;stroke-linejoin:miter;stroke-miterlimit:4;stroke-dasharray:none;stroke-opacity:1"/><path d="M378.5763 371.4975c-15.4555-1.7625-34.3895-9.2408-53.449-21.111-17.1937-10.7082-33.462-24.4386-43.7637-36.9365-2.9117-3.5324-6.0697-7.9247-5.8558-8.1445.081-.0832 3.7432.0677 8.1386.3352s8.0191.4527 8.0527.4115c.111-.1356 1.423-6.282 1.7114-8.0176 2.4536-14.7583 1.6422-31.4216-2.3676-48.6212-.6507-2.7915-1.4479-5.9546-1.7714-7.029-.3236-1.0744-.5439-1.999-.49-2.0545.1953-.2007 3.2431 1.0968 7.399 3.15 17.3393 8.5657 35.5482 25.5124 51.5897 48.0137 17.6916 24.816 30.594 53.8104 33.573 75.4453.6808 4.9453.7163 4.7124-.7145 4.6815-.6613-.0142-1.585-.0695-2.0524-.123z" style="display:inline;opacity:1;fill:url(#f);fill-opacity:1;stroke:none;stroke-width:8;stroke-linecap:butt;stroke-linejoin:miter;stroke-miterlimit:4;stroke-dasharray:none;stroke-dashoffset:0;stroke-opacity:1"/><path d="M283.512 235.049c50.7835 12.867 101.2402 96.2522 101.8384 140.0683-38.6862.5281-96.564-40.4566-114.3939-70.3876" style="display:inline;fill:none;fill-rule:evenodd;stroke:#996959;stroke-width:8;stroke-linecap:butt;stroke-linejoin:miter;stroke-miterlimit:4;stroke-dasharray:none;stroke-opacity:1"/><path d="M205.3549 236.4184c2.5716 12.6978 5.829 20.112 7.875 34.6246-6.2081 1.364-138.5784 23.645-148.3917 23.198-.6778-3.0851-2.5195-31.462-2.3662-34.8263 8.2711-1.8173 131.048-20.396 142.8829-22.9963z" style="display:inline;fill:#755144"/><path d="M182.889 118.681c1.6331 11.4673 3.2983 20.6345 6.1382 33.5599-9.8874 1.5464-125.417 17.3872-136.717 19.87-1.082-4.9242-4.2295-27.5675-4.0144-32.29 11.9217-1.6854 122.997-19.6253 134.5932-21.1398z" style="display:inline;fill:#755144;stroke-width:6.4000001;stroke-miterlimit:4;stroke-dasharray:none"/><path d="M183.2626 126.014c-4.695-30.9872-6.8148-56.3257-6.5134-77.8527.067-4.7865.4889-13.7414.6593-13.9958.241-.3598 7.8303 6.0512 12.895 10.893 3.134 2.996 9.343 9.528 12.4813 13.1306 20.8366 23.9185 39.097 55.1995 49.7915 85.2953.9056 2.5485 1.673 4.6527 1.7054 4.6761.0324.0234.8889-.3844 1.9034-.906 15.6013-8.0228 32.2989-14.8356 45.9237-18.7374 7.7942-2.2321 18.7642-4.4178 24.7202-4.9253 17.1274-1.4595 30.6816.7016 42.7467 6.8155 2.392 1.2122 6.0733 3.4017 7.4477 4.4297l.674.5042-3.5753 6.5833c-6.3227 11.6421-6.8851 12.7004-6.8403 12.8723.0245.0929 4.2388 2.7188 9.3657 5.8352l9.3216 5.6662-2.1285 2.951c-11.4698 15.9028-28.8602 29.6704-47.9424 37.9549-8.7885 3.8155-15.5035 5.8882-25.0486 7.7318-12.1222 2.3415-21.6713 2.8524-32.472 1.7377-1.5876-.1638-2.9106-.2636-2.94-.2217-.0292.042.5422 1.6512 1.2699 3.5762 5.9954 15.8581 12.22 40.8168 15.0338 60.2811 2.4155 16.7095 3.184 29.3613 2.514 41.393-.2695 4.8387-1.112 11.4372-1.8628 14.589l-.1877.7879-1.1028-.2062c-2.2116-.4137-15.555-2.69-15.5723-2.6566-.009.0188-1.2995 3.505-2.866 7.7468-1.5665 4.2418-2.899 7.79-2.9613 7.8847-.1751.2668-5.153-2.5922-8.5803-4.9278-18.1298-12.3559-31.5658-32.1973-42.9998-63.4994-3.4598-9.4715-4.2284-12.046-6.9696-23.344-9.5458-39.3435-13.8431-58.145-19.2532-84.2358-1.8438-8.8922-7.3969-39.6417-8.637-47.8267z" style="opacity:1;fill:url(#g);fill-opacity:1;fill-rule:nonzero;stroke:none;stroke-width:.80000001;stroke-linecap:butt;stroke-linejoin:miter;stroke-miterlimit:4;stroke-dasharray:none;stroke-dashoffset:0;stroke-opacity:1"/><path d="m269.9384 350.6795 5.9062-15.9665 16.7388 2.888c8.4012-36.0184-1.287-86.8511-16.5824-120.7081 41.9423.7217 88.5167-11.5595 110.6502-50.703l-18.896-11.5596 10.5773-19.4681C328 112 274.3805 131.8808 254.5161 147.5719c-16.0515-58.0945-44.7067-89.5938-77.5572-114.6274-5.4595 68.3508 21.1883 173.317 36.2501 235.6479 8.8053 26.8787 22.9418 65.2802 56.7294 82.087z" style="fill:none;fill-rule:evenodd;stroke:#996959;stroke-width:8;stroke-linecap:butt;stroke-linejoin:miter;stroke-miterlimit:4;stroke-dasharray:none;stroke-opacity:1"/></g><g style="display:inline"><path d="M73.83 488c25.6085-44.3553-15.0398-264.003-35.6711-385.8584" style="display:inline;fill:none;fill-rule:evenodd;stroke:#996959;stroke-width:10.39999962;stroke-linecap:round;stroke-linejoin:miter;stroke-miterlimit:4;stroke-dasharray:none;stroke-opacity:1"/></g></svg>